<svg class="sheet" xmlns="http://www.w3.org/2000/svg" width="215.9mm" height="279.4mm" viewBox="0 0 215.9 279.4">
<rect x="0" y="0" width="215.9" height="279.4" fill="#fff"/>
<polygon points="109.052,141.972 134.452,141.972 145.811,164.690 120.411,164.690" fill="#d9d9f5"/>
<polygon points="109.052,141.972 134.452,141.972 145.811,119.253 120.411,119.253" fill="#d9d9f5"/>
<polygon points="120.411,119.253 109.052,141.972 93.812,121.652 105.171,98.933" fill="#d9d9f5"/>
<polygon points="145.811,119.253 134.452,141.972 149.692,162.292 161.051,139.573" fill="#f6f6d7"/>
<polygon points="93.812,121.652 109.052,141.972 84.061,146.516 68.821,126.196" fill="#d9d9f5"/>
<polygon points="105.171,98.933 120.411,119.253 145.401,114.710 130.161,94.390" fill="#f6f6d7"/>
<polygon points="145.811,119.253 161.051,139.573 172.410,116.855 157.170,96.535" fill="#f6f6d7"/>
<polygon points="84.061,146.516 109.052,141.972 101.940,166.356 76.949,170.900" fill="#d9d9f5"/>
<polygon points="68.821,126.196 93.812,121.652 100.924,97.268 75.933,101.812" fill="#f6f6d7"/>
<polygon points="105.171,98.933 130.161,94.390 114.921,74.070 89.931,78.613" fill="#f6f6d7"/>
<polygon points="161.051,139.573 172.410,116.855 197.810,116.855 186.451,139.573" fill="#f6f6d7"/>
<polygon points="76.949,170.900 84.061,146.516 65.432,129.250 58.320,153.634" fill="#f6f6d7"/>
<polygon points="68.821,126.196 75.933,101.812 50.943,106.355 43.831,130.739" fill="#f6f6d7"/>
<polygon points="130.161,94.390 114.921,74.070 126.280,51.351 141.520,71.671" fill="#f6f6d7"/>
<polygon points="186.451,139.573 161.051,139.573 172.410,162.292 197.810,162.292" fill="#f6f6d7"/>
<polygon points="76.949,170.900 58.320,153.634 51.208,178.018 69.837,195.284" fill="#f6f6d7"/>
<polygon points="75.933,101.812 50.943,106.355 35.703,86.035 60.693,81.492" fill="#f6f6d7"/>
<polygon points="141.520,71.671 130.161,94.390 155.561,94.390 166.920,71.671" fill="#f6f6d7"/>
<polygon points="197.810,162.292 172.410,162.292 161.051,185.010 186.451,185.010" fill="#f6f6d7"/>
<polygon points="58.320,153.634 51.208,178.018 26.218,182.561 33.330,158.177" fill="#f6f6d7"/>
<polygon points="60.693,81.492 75.933,101.812 87.293,79.093 72.053,58.773" fill="#f6f6d7"/>
<polygon points="161.051,185.010 186.451,185.010 197.810,207.729 172.410,207.729" fill="#f6f6d7"/>
<polygon points="33.330,158.177 58.320,153.634 43.080,133.314 18.090,137.857" fill="#f6f6d7"/>
<polygon points="172.410,207.729 161.051,185.010 145.811,205.330 157.170,228.049" fill="#f6f6d7"/>
<polygon points="161.051,185.010 145.811,205.330 134.452,182.612 149.692,162.292" fill="#f6f6d7"/>
<line x1="109.052" y1="141.972" x2="134.452" y2="141.972" stroke="#c0392b" stroke-width="0.28" stroke-dasharray="1.4 1.4"/>
<line x1="134.452" y1="141.972" x2="145.811" y2="119.253" stroke="#c0392b" stroke-width="0.28" stroke-dasharray="1.4 1.4"/>
<line x1="120.411" y1="119.253" x2="109.052" y2="141.972" stroke="#c0392b" stroke-width="0.28" stroke-dasharray="1.4 1.4"/>
<line x1="109.052" y1="141.972" x2="93.812" y2="121.652" stroke="#c0392b" stroke-width="0.28" stroke-dasharray="1.4 1.4"/>
<line x1="105.171" y1="98.933" x2="120.411" y2="119.253" stroke="#c0392b" stroke-width="0.28" stroke-dasharray="1.4 1.4"/>
<line x1="161.051" y1="139.573" x2="145.811" y2="119.253" stroke="#2469b8" stroke-width="0.28" stroke-dasharray="3.2 1.6"/>
<line x1="109.052" y1="141.972" x2="84.061" y2="146.516" stroke="#c0392b" stroke-width="0.28" stroke-dasharray="1.4 1.4"/>
<line x1="68.821" y1="126.196" x2="93.812" y2="121.652" stroke="#c0392b" stroke-width="0.28" stroke-dasharray="1.4 1.4"/>
<line x1="130.161" y1="94.390" x2="105.171" y2="98.933" stroke="#2469b8" stroke-width="0.28" stroke-dasharray="3.2 1.6"/>
<line x1="161.051" y1="139.573" x2="172.410" y2="116.855" stroke="#2469b8" stroke-width="0.28" stroke-dasharray="1.4 1.4"/>
<line x1="76.949" y1="170.900" x2="84.061" y2="146.516" stroke="#c0392b" stroke-width="0.28" stroke-dasharray="1.4 1.4"/>
<line x1="75.933" y1="101.812" x2="68.821" y2="126.196" stroke="#2469b8" stroke-width="0.28" stroke-dasharray="3.2 1.6"/>
<line x1="130.161" y1="94.390" x2="114.921" y2="74.070" stroke="#2469b8" stroke-width="0.28" stroke-dasharray="1.4 1.4"/>
<line x1="186.451" y1="139.573" x2="161.051" y2="139.573" stroke="#2469b8" stroke-width="0.28" stroke-dasharray="1.4 1.4"/>
<line x1="58.320" y1="153.634" x2="76.949" y2="170.900" stroke="#2469b8" stroke-width="0.28" stroke-dasharray="3.2 1.6"/>
<line x1="75.933" y1="101.812" x2="50.943" y2="106.355" stroke="#2469b8" stroke-width="0.28" stroke-dasharray="1.4 1.4"/>
<line x1="141.520" y1="71.671" x2="130.161" y2="94.390" stroke="#2469b8" stroke-width="0.28" stroke-dasharray="1.4 1.4"/>
<line x1="172.410" y1="162.292" x2="197.810" y2="162.292" stroke="#c0392b" stroke-width="0.28" stroke-dasharray="1.4 1.4"/>
<line x1="58.320" y1="153.634" x2="51.208" y2="178.018" stroke="#2469b8" stroke-width="0.28" stroke-dasharray="1.4 1.4"/>
<line x1="60.693" y1="81.492" x2="75.933" y2="101.812" stroke="#2469b8" stroke-width="0.28" stroke-dasharray="1.4 1.4"/>
<line x1="161.051" y1="185.010" x2="186.451" y2="185.010" stroke="#2469b8" stroke-width="0.28" stroke-dasharray="1.4 1.4"/>
<line x1="33.330" y1="158.177" x2="58.320" y2="153.634" stroke="#2469b8" stroke-width="0.28" stroke-dasharray="1.4 1.4"/>
<line x1="172.410" y1="207.729" x2="161.051" y2="185.010" stroke="#2469b8" stroke-width="0.28" stroke-dasharray="1.4 1.4"/>
<line x1="161.051" y1="185.010" x2="145.811" y2="205.330" stroke="#2469b8" stroke-width="0.28" stroke-dasharray="3.2 1.6"/>
<line x1="134.452" y1="141.972" x2="145.811" y2="164.690" stroke="#111" stroke-width="0.5" stroke-linecap="round"/>
<line x1="145.811" y1="164.690" x2="120.411" y2="164.690" stroke="#111" stroke-width="0.5" stroke-linecap="round"/>
<line x1="120.411" y1="164.690" x2="109.052" y2="141.972" stroke="#111" stroke-width="0.5" stroke-linecap="round"/>
<line x1="145.811" y1="119.253" x2="120.411" y2="119.253" stroke="#111" stroke-width="0.5" stroke-linecap="round"/>
<line x1="93.812" y1="121.652" x2="105.171" y2="98.933" stroke="#111" stroke-width="0.5" stroke-linecap="round"/>
<line x1="134.452" y1="141.972" x2="149.692" y2="162.292" stroke="#111" stroke-width="0.5" stroke-linecap="round"/>
<line x1="149.692" y1="162.292" x2="161.051" y2="139.573" stroke="#111" stroke-width="0.5" stroke-linecap="round"/>
<line x1="84.061" y1="146.516" x2="68.821" y2="126.196" stroke="#111" stroke-width="0.5" stroke-linecap="round"/>
<line x1="120.411" y1="119.253" x2="145.401" y2="114.710" stroke="#111" stroke-width="0.5" stroke-linecap="round"/>
<line x1="145.401" y1="114.710" x2="130.161" y2="94.390" stroke="#111" stroke-width="0.5" stroke-linecap="round"/>
<line x1="172.410" y1="116.855" x2="157.170" y2="96.535" stroke="#111" stroke-width="0.5" stroke-linecap="round"/>
<line x1="157.170" y1="96.535" x2="145.811" y2="119.253" stroke="#111" stroke-width="0.5" stroke-linecap="round"/>
<line x1="109.052" y1="141.972" x2="101.940" y2="166.356" stroke="#111" stroke-width="0.5" stroke-linecap="round"/>
<line x1="101.940" y1="166.356" x2="76.949" y2="170.900" stroke="#111" stroke-width="0.5" stroke-linecap="round"/>
<line x1="93.812" y1="121.652" x2="100.924" y2="97.268" stroke="#111" stroke-width="0.5" stroke-linecap="round"/>
<line x1="100.924" y1="97.268" x2="75.933" y2="101.812" stroke="#111" stroke-width="0.5" stroke-linecap="round"/>
<line x1="114.921" y1="74.070" x2="89.931" y2="78.613" stroke="#111" stroke-width="0.5" stroke-linecap="round"/>
<line x1="89.931" y1="78.613" x2="105.171" y2="98.933" stroke="#111" stroke-width="0.5" stroke-linecap="round"/>
<line x1="172.410" y1="116.855" x2="197.810" y2="116.855" stroke="#111" stroke-width="0.5" stroke-linecap="round"/>
<line x1="197.810" y1="116.855" x2="186.451" y2="139.573" stroke="#111" stroke-width="0.5" stroke-linecap="round"/>
<line x1="84.061" y1="146.516" x2="65.432" y2="129.250" stroke="#111" stroke-width="0.5" stroke-linecap="round"/>
<line x1="65.432" y1="129.250" x2="58.320" y2="153.634" stroke="#111" stroke-width="0.5" stroke-linecap="round"/>
<line x1="50.943" y1="106.355" x2="43.831" y2="130.739" stroke="#111" stroke-width="0.5" stroke-linecap="round"/>
<line x1="43.831" y1="130.739" x2="68.821" y2="126.196" stroke="#111" stroke-width="0.5" stroke-linecap="round"/>
<line x1="114.921" y1="74.070" x2="126.280" y2="51.351" stroke="#111" stroke-width="0.5" stroke-linecap="round"/>
<line x1="126.280" y1="51.351" x2="141.520" y2="71.671" stroke="#111" stroke-width="0.5" stroke-linecap="round"/>
<line x1="161.051" y1="139.573" x2="172.410" y2="162.292" stroke="#111" stroke-width="0.5" stroke-linecap="round"/>
<line x1="197.810" y1="162.292" x2="186.451" y2="139.573" stroke="#111" stroke-width="0.5" stroke-linecap="round"/>
<line x1="51.208" y1="178.018" x2="69.837" y2="195.284" stroke="#111" stroke-width="0.5" stroke-linecap="round"/>
<line x1="69.837" y1="195.284" x2="76.949" y2="170.900" stroke="#111" stroke-width="0.5" stroke-linecap="round"/>
<line x1="50.943" y1="106.355" x2="35.703" y2="86.035" stroke="#111" stroke-width="0.5" stroke-linecap="round"/>
<line x1="35.703" y1="86.035" x2="60.693" y2="81.492" stroke="#111" stroke-width="0.5" stroke-linecap="round"/>
<line x1="130.161" y1="94.390" x2="155.561" y2="94.390" stroke="#111" stroke-width="0.5" stroke-linecap="round"/>
<line x1="155.561" y1="94.390" x2="166.920" y2="71.671" stroke="#111" stroke-width="0.5" stroke-linecap="round"/>
<line x1="166.920" y1="71.671" x2="141.520" y2="71.671" stroke="#111" stroke-width="0.5" stroke-linecap="round"/>
<line x1="172.410" y1="162.292" x2="161.051" y2="185.010" stroke="#111" stroke-width="0.5" stroke-linecap="round"/>
<line x1="186.451" y1="185.010" x2="197.810" y2="162.292" stroke="#111" stroke-width="0.5" stroke-linecap="round"/>
<line x1="51.208" y1="178.018" x2="26.218" y2="182.561" stroke="#111" stroke-width="0.5" stroke-linecap="round"/>
<line x1="26.218" y1="182.561" x2="33.330" y2="158.177" stroke="#111" stroke-width="0.5" stroke-linecap="round"/>
<line x1="75.933" y1="101.812" x2="87.293" y2="79.093" stroke="#111" stroke-width="0.5" stroke-linecap="round"/>
<line x1="87.293" y1="79.093" x2="72.053" y2="58.773" stroke="#111" stroke-width="0.5" stroke-linecap="round"/>
<line x1="72.053" y1="58.773" x2="60.693" y2="81.492" stroke="#111" stroke-width="0.5" stroke-linecap="round"/>
<line x1="186.451" y1="185.010" x2="197.810" y2="207.729" stroke="#111" stroke-width="0.5" stroke-linecap="round"/>
<line x1="197.810" y1="207.729" x2="172.410" y2="207.729" stroke="#111" stroke-width="0.5" stroke-linecap="round"/>
<line x1="58.320" y1="153.634" x2="43.080" y2="133.314" stroke="#111" stroke-width="0.5" stroke-linecap="round"/>
<line x1="43.080" y1="133.314" x2="18.090" y2="137.857" stroke="#111" stroke-width="0.5" stroke-linecap="round"/>
<line x1="18.090" y1="137.857" x2="33.330" y2="158.177" stroke="#111" stroke-width="0.5" stroke-linecap="round"/>
<line x1="145.811" y1="205.330" x2="157.170" y2="228.049" stroke="#111" stroke-width="0.5" stroke-linecap="round"/>
<line x1="157.170" y1="228.049" x2="172.410" y2="207.729" stroke="#111" stroke-width="0.5" stroke-linecap="round"/>
<line x1="145.811" y1="205.330" x2="134.452" y2="182.612" stroke="#111" stroke-width="0.5" stroke-linecap="round"/>
<line x1="134.452" y1="182.612" x2="149.692" y2="162.292" stroke="#111" stroke-width="0.5" stroke-linecap="round"/>
<line x1="149.692" y1="162.292" x2="161.051" y2="185.010" stroke="#111" stroke-width="0.5" stroke-linecap="round"/>
<text x="18.090" y="232.049" font-size="3.2" font-family="sans-serif" fill="#aaa">1 · 25 rhombi</text>
<text x="12.700" y="271.200" font-size="3" font-family="sans-serif" fill="#666">cut</text>
<line x1="21.700" y1="270.200" x2="33.700" y2="270.200" stroke="#111" stroke-width="0.5"/>
<text x="36.700" y="271.200" font-size="3" font-family="sans-serif" fill="#666">36°</text>
<line x1="43.700" y1="270.200" x2="55.700" y2="270.200" stroke="#666" stroke-width="0.28" stroke-dasharray="1.4 1.4"/>
<text x="58.700" y="271.200" font-size="3" font-family="sans-serif" fill="#666">72°</text>
<line x1="65.700" y1="270.200" x2="77.700" y2="270.200" stroke="#666" stroke-width="0.28" stroke-dasharray="3.2 1.6"/>
<text x="80.700" y="271.200" font-size="3" font-family="sans-serif" fill="#666">108°</text>
<line x1="89.700" y1="270.200" x2="101.700" y2="270.200" stroke="#666" stroke-width="0.28" stroke-dasharray="6 1.8"/>
<text x="104.700" y="271.200" font-size="3" font-family="sans-serif" fill="#c0392b">mountain</text>
<text x="124.700" y="271.200" font-size="3" font-family="sans-serif" fill="#2469b8">valley</text>
</svg>