<svg class="sheet" xmlns="http://www.w3.org/2000/svg" width="215.9mm" height="279.4mm" viewBox="0 0 215.9 279.4">
<rect x="0" y="0" width="215.9" height="279.4" fill="#fff"/>
<polygon points="102.270,139.700 127.670,139.700 139.030,162.418 113.630,162.418" fill="#f9e9dc"/>
<polygon points="113.630,162.418 102.270,139.700 76.870,139.700 88.230,162.418" fill="#f9e9dc"/>
<polygon points="102.270,139.700 76.870,139.700 88.230,116.982 113.630,116.982" fill="#f9e9dc"/>
<line x1="113.630" y1="162.418" x2="102.270" y2="139.700" stroke="#2469b8" stroke-width="0.28" stroke-dasharray="3.2 1.6"/>
<line x1="102.270" y1="139.700" x2="76.870" y2="139.700" stroke="#2469b8" stroke-width="0.28" stroke-dasharray="6 1.8"/>
<line x1="102.270" y1="139.700" x2="127.670" y2="139.700" stroke="#111" stroke-width="0.5" stroke-linecap="round"/>
<line x1="127.670" y1="139.700" x2="139.030" y2="162.418" stroke="#111" stroke-width="0.5" stroke-linecap="round"/>
<line x1="139.030" y1="162.418" x2="113.630" y2="162.418" stroke="#111" stroke-width="0.5" stroke-linecap="round"/>
<line x1="76.870" y1="139.700" x2="88.230" y2="162.418" stroke="#111" stroke-width="0.5" stroke-linecap="round"/>
<line x1="88.230" y1="162.418" x2="113.630" y2="162.418" stroke="#111" stroke-width="0.5" stroke-linecap="round"/>
<line x1="76.870" y1="139.700" x2="88.230" y2="116.982" stroke="#111" stroke-width="0.5" stroke-linecap="round"/>
<line x1="88.230" y1="116.982" x2="113.630" y2="116.982" stroke="#111" stroke-width="0.5" stroke-linecap="round"/>
<line x1="113.630" y1="116.982" x2="102.270" y2="139.700" stroke="#111" stroke-width="0.5" stroke-linecap="round"/>
<text x="76.870" y="166.418" font-size="3.2" font-family="sans-serif" fill="#aaa">1 · 3 rhombi</text>
<text x="12.700" y="271.200" font-size="3" font-family="sans-serif" fill="#666">cut</text>
<line x1="21.700" y1="270.200" x2="33.700" y2="270.200" stroke="#111" stroke-width="0.5"/>
<text x="36.700" y="271.200" font-size="3" font-family="sans-serif" fill="#666">36°</text>
<line x1="43.700" y1="270.200" x2="55.700" y2="270.200" stroke="#666" stroke-width="0.28" stroke-dasharray="1.4 1.4"/>
<text x="58.700" y="271.200" font-size="3" font-family="sans-serif" fill="#666">72°</text>
<line x1="65.700" y1="270.200" x2="77.700" y2="270.200" stroke="#666" stroke-width="0.28" stroke-dasharray="3.2 1.6"/>
<text x="80.700" y="271.200" font-size="3" font-family="sans-serif" fill="#666">108°</text>
<line x1="89.700" y1="270.200" x2="101.700" y2="270.200" stroke="#666" stroke-width="0.28" stroke-dasharray="6 1.8"/>
<text x="104.700" y="271.200" font-size="3" font-family="sans-serif" fill="#c0392b">mountain</text>
<text x="124.700" y="271.200" font-size="3" font-family="sans-serif" fill="#2469b8">valley</text>
</svg>